<svg width="24" height="18" viewBox="0 0 24 18" fill="none" xmlns="http://www.w3.org/2000/svg">
<g clip-path="url(#clip0_97_1284)">
<path d="M0.781189 0C0.312439 0 -6.10352e-05 0.3125 -6.10352e-05 0.78125V17.207C-6.10352e-05 17.6758 0.312439 17.9785 0.781189 17.9785H22.2558C22.7245 17.9785 23.0272 17.6758 23.0272 17.207V0.78125C23.0272 0.3125 22.7245 0 22.2558 0H0.781189ZM1.85541 1.57227H21.1718C21.3866 1.57227 21.455 1.65039 21.455 1.85547V16.123C21.455 16.3379 21.3866 16.4062 21.1718 16.4062H1.85541C1.65033 16.4062 1.57221 16.3379 1.57221 16.123V1.85547C1.57221 1.65039 1.65033 1.57227 1.85541 1.57227ZM3.20306 2.62695C2.83197 2.62695 2.62689 2.83203 2.62689 3.19336V14.7949C2.62689 15.1465 2.83197 15.3613 3.20306 15.3613H19.8339C20.1952 15.3613 20.4101 15.1465 20.4101 14.7949V3.19336C20.4101 2.83203 20.1952 2.62695 19.8339 2.62695H3.20306ZM3.82806 3.61328H19.1991C19.3456 3.61328 19.4237 3.69141 19.4237 3.83789V14.1504C19.4237 14.2969 19.3456 14.375 19.1991 14.375H3.82806C3.68158 14.375 3.61322 14.2969 3.61322 14.1504V3.83789C3.61322 3.69141 3.68158 3.61328 3.82806 3.61328ZM19.6679 13.0664L15.1561 8.84766C14.8144 8.52539 14.4237 8.37891 14.0136 8.37891C13.5839 8.37891 13.203 8.50586 12.8612 8.82812L9.414 11.9141L8.00775 10.6348C7.69525 10.3418 7.33392 10.2051 6.9726 10.2051C6.64056 10.2051 6.3183 10.3418 5.99603 10.625L3.09564 13.252V14.0332C3.09564 14.6582 3.44721 14.9219 3.96478 14.9219H18.789C19.3163 14.9219 19.6679 14.6582 19.6679 14.0332V13.0664ZM8.17377 8.91602C9.1601 8.91602 9.97064 8.10547 9.97064 7.11914C9.97064 6.13281 9.1601 5.32227 8.17377 5.32227C7.18744 5.32227 6.37689 6.13281 6.37689 7.11914C6.37689 8.10547 7.18744 8.91602 8.17377 8.91602Z" fill="#2862E0"/>
</g>
<defs>
<clipPath id="clip0_97_1284">
<rect width="23.0273" height="17.9785" fill="white"/>
</clipPath>
</defs>
</svg>
