<svg width="25" height="25" viewBox="0 0 25 25" fill="none" xmlns="http://www.w3.org/2000/svg">
<g clip-path="url(#clip0_97_121)">
<path d="M5.71808 17.7715H8.11065C8.68683 17.7715 9.06769 17.3809 9.06769 16.834V15.0273C9.06769 14.4707 8.68683 14.0898 8.11065 14.0898H5.71808C5.1419 14.0898 4.76104 14.4707 4.76104 15.0273V16.834C4.76104 17.3809 5.1419 17.7715 5.71808 17.7715ZM2.12433 10.6133H23.5013V8.39648H2.12433V10.6133ZM4.39972 21.1895H21.2161C23.2669 21.1895 24.2825 20.1836 24.2825 18.1719V7.53711C24.2825 5.52539 23.2669 4.50977 21.2161 4.50977H4.39972C2.3587 4.50977 1.33331 5.52539 1.33331 7.53711V18.1719C1.33331 20.1836 2.3587 21.1895 4.39972 21.1895ZM4.41925 19.6172C3.44269 19.6172 2.90558 19.0996 2.90558 18.084V7.625C2.90558 6.60938 3.44269 6.08203 4.41925 6.08203H21.1966C22.1536 6.08203 22.7103 6.60938 22.7103 7.625V18.084C22.7103 19.0996 22.1536 19.6172 21.1966 19.6172H4.41925Z" fill="#2862E0"/>
</g>
<defs>
<clipPath id="clip0_97_121">
<rect width="22.9492" height="16.6895" fill="white" transform="translate(1.33331 4.5)"/>
</clipPath>
</defs>
</svg>
