<svg width="25" height="25" viewBox="0 0 25 25" fill="none" xmlns="http://www.w3.org/2000/svg">
<g clip-path="url(#clip0_97_336)">
<path d="M7.67249 22.9551C8.15101 22.9551 8.48304 22.7012 9.07874 22.1738L12.4478 19.1758H18.7174C21.6275 19.1758 23.19 17.5645 23.19 14.7031V7.22266C23.19 4.36133 21.6275 2.75 18.7174 2.75H6.13929C3.22913 2.75 1.66663 4.35156 1.66663 7.22266V14.7031C1.66663 17.5742 3.22913 19.1758 6.13929 19.1758H6.60804V21.7148C6.60804 22.4668 6.9889 22.9551 7.67249 22.9551ZM8.07288 21.168V18.3359C8.07288 17.8086 7.8678 17.6035 7.34046 17.6035H6.13929C4.16663 17.6035 3.2389 16.5977 3.2389 14.6934V7.22266C3.2389 5.31836 4.16663 4.32227 6.13929 4.32227H18.7174C20.6803 4.32227 21.6178 5.31836 21.6178 7.22266V14.6934C21.6178 16.5977 20.6803 17.6035 18.7174 17.6035H12.3893C11.8424 17.6035 11.569 17.6816 11.1979 18.0625L8.07288 21.168ZM7.39905 8.26758H17.3404C17.6529 8.26758 17.8971 8.02344 17.8971 7.70117C17.8971 7.39844 17.6529 7.14453 17.3404 7.14453H7.39905C7.08655 7.14453 6.83265 7.39844 6.83265 7.70117C6.83265 8.02344 7.08655 8.26758 7.39905 8.26758ZM7.39905 11.4512H17.3404C17.6529 11.4512 17.8971 11.1973 17.8971 10.875C17.8971 10.5723 17.6529 10.3184 17.3404 10.3184H7.39905C7.08655 10.3184 6.83265 10.5723 6.83265 10.875C6.83265 11.1973 7.08655 11.4512 7.39905 11.4512ZM7.39905 14.625H13.8639C14.1764 14.625 14.4205 14.3809 14.4205 14.0684C14.4205 13.7461 14.1764 13.4922 13.8639 13.4922H7.39905C7.08655 13.4922 6.83265 13.7461 6.83265 14.0684C6.83265 14.3809 7.08655 14.625 7.39905 14.625Z" fill="#2862E0"/>
</g>
<defs>
<clipPath id="clip0_97_336">
<rect width="21.5234" height="21.4551" fill="white" transform="translate(1.66663 1.5)"/>
</clipPath>
</defs>
</svg>
